<svg data-v-21be7ea2="" version="1.0" xmlns="http://www.w3.org/2000/svg" xmlns:xlink="http://www.w3.org/1999/xlink" width="100%" height="100%" viewBox="0 0 340.000000 250.000000" preserveAspectRatio="xMidYMid meet" color-interpolation-filters="sRGB" class="el-tooltip" style="margin: auto;"><rect data-v-21be7ea2="" x="0" y="0" width="100%" height="100%" fill="#0099cc" fill-opacity="1"></rect> <rect data-v-21be7ea2="" x="0" y="0" width="100%" height="100%" fill="url(#watermark)" fill-opacity="1" class="watermarklayer"></rect> <g data-v-21be7ea2="" fill="#fff" class="bordersvg" transform="translate(118.81952667236328,91.64999771118164)"><path fill-opacity="0" stroke="#fff" stroke-width="3" d="M 56.70000076293945 8.56201171875 A 33.35000038146973 33.35000038146973 0 1 0 56.70000076293945 58.13798904418945"></path> <g transform="translate(10,8.56201171875)"><g><rect stroke-width="2" x="0" y="0" width="93.4000015258789" height="49.57597732543945" fill-opacity="0"></rect> <!----> <!----> </g> <g transform="translate(10,3)"><g class="tp-name" transform="translate(0,0)"><g><path d="M18.08-3.84L18.08-3.84L20.28-3.40L20.28-2.28L20.28-2.28Q17.96-2.36 16.02-2.38L16.02-2.38L16.02-2.38Q14.08-2.40 12.84-2.40L12.84-2.40L12.84-2.40Q11.64-2.40 10.18-2.38L10.18-2.38L10.18-2.38Q8.72-2.36 7.40-2.28L7.40-2.28L7.40-3.32L9.84-3.80L9.84-3.80Q10.52-3.92 10.96-4.28L10.96-4.28L10.96-4.28Q11.40-4.64 11.40-5.16L11.40-5.16L11.40-11.44L11.40-11.44Q11.44-11.88 11.22-12.38L11.22-12.38L11.22-12.38Q11-12.88 10.68-13.44L10.68-13.44L4.52-23.64L4.52-23.64Q3.76-24.92 3.12-25.50L3.12-25.50L3.12-25.50Q2.48-26.08 1.96-26.16L1.96-26.16L0.20-26.40L0.20-27.52L0.20-27.52Q0.96-27.40 5.16-27.40L5.16-27.40L5.16-27.40Q6.20-27.40 7.26-27.40L7.26-27.40L7.26-27.40Q8.32-27.40 9.28-27.42L9.28-27.42L9.28-27.42Q10.24-27.44 11-27.46L11-27.46L11-27.46Q11.76-27.48 12.16-27.52L12.16-27.52L12.16-26.40L10.84-26.04L10.84-26.04Q9.76-25.84 9.76-25.28L9.76-25.28L9.76-25.28Q9.76-25.04 9.92-24.84L9.92-24.84L15.72-14.96L15.72-14.96Q17.04-17.16 18.36-19.34L18.36-19.34L18.36-19.34Q19.68-21.52 21.04-23.72L21.04-23.72L21.04-23.72Q21.32-24.16 21.42-24.50L21.42-24.50L21.42-24.50Q21.52-24.84 21.52-25.12L21.52-25.12L21.52-25.12Q21.52-25.76 20.52-26L20.52-26L18.64-26.40L18.64-27.52L18.64-27.52Q19-27.40 22.56-27.40L22.56-27.40L22.56-27.40Q24.36-27.40 25.50-27.44L25.50-27.44L25.50-27.44Q26.64-27.48 27.08-27.56L27.08-27.56L27.08-26.44L25.72-26.12L25.72-26.12Q25.12-25.96 24.20-25.26L24.20-25.26L24.20-25.26Q23.28-24.56 22.32-22.88L22.32-22.88L17.08-14.32L17.08-14.32Q16.76-13.88 16.64-13.28L16.64-13.28L16.64-13.28Q16.52-12.68 16.52-11.40L16.52-11.40L16.52-5.24L16.52-5.24Q16.52-4.08 18.08-3.84ZM37.12-24.68L37.12-5L37.12-5Q37.12-4.48 37.30-4.22L37.30-4.22L37.30-4.22Q37.48-3.96 38.24-3.96L38.24-3.96L42.12-3.96L42.12-3.96Q42.88-3.96 43.86-4.06L43.86-4.06L43.86-4.06Q44.84-4.16 45.94-4.66L45.94-4.66L45.94-4.66Q47.04-5.16 48.18-6.22L48.18-6.22L48.18-6.22Q49.32-7.28 50.36-9.20L50.36-9.20L51-9.20L49.84-2.24L49.84-2.24Q48.16-2.32 45.42-2.36L45.42-2.36L45.42-2.36Q42.68-2.40 38.72-2.40L38.72-2.40L38.72-2.40Q34.76-2.40 32.16-2.36L32.16-2.36L32.16-2.36Q29.56-2.32 28.28-2.24L28.28-2.24L28.28-3.20L31-3.72L31-3.72Q32.04-3.84 32.04-4.56L32.04-4.56L32.04-24.68L32.04-24.68Q32.04-25.44 31.76-25.64L31.76-25.64L31.76-25.64Q31.48-25.84 31-25.96L31-25.96L28.84-26.48L28.84-27.52L28.84-27.52Q31-27.40 35.32-27.40L35.32-27.40L35.32-27.40Q39.64-27.40 40.68-27.52L40.68-27.52L40.68-26.48L38.16-25.96L38.16-25.96Q37.64-25.84 37.38-25.66L37.38-25.66L37.38-25.66Q37.12-25.48 37.12-24.68L37.12-24.68ZM64.44-3.68L64.44-2.24L64.44-2.24Q63.04-2.32 61.36-2.36L61.36-2.36L61.36-2.36Q59.68-2.40 58.04-2.40L58.04-2.40L58.04-2.40Q56.40-2.40 54.76-2.36L54.76-2.36L54.76-2.36Q53.12-2.32 52.20-2.24L52.20-2.24L52.20-3.68L54.64-3.96L54.64-3.96Q55.32-4.04 55.54-4.34L55.54-4.34L55.54-4.34Q55.76-4.64 55.76-5.40L55.76-5.40L55.76-24.28L55.76-24.28Q55.76-25.16 55.58-25.58L55.58-25.58L55.58-25.58Q55.40-26 54.76-26.08L54.76-26.08L52.52-26.36L52.52-27.48L52.52-27.48Q53.44-27.44 57.56-27.42L57.56-27.42L57.56-27.42Q61.68-27.40 68.36-27.40L68.36-27.40L68.36-27.40Q70.16-27.40 71.44-27.42L71.44-27.42L71.44-27.42Q72.72-27.44 73.60-27.48L73.60-27.48L73.60-27.48Q73.60-27.24 73.58-26.80L73.58-26.80L73.58-26.80Q73.56-26.36 73.54-25.84L73.54-25.84L73.54-25.84Q73.52-25.32 73.52-24.80L73.52-24.80L73.52-24.80Q73.52-24.28 73.52-23.80L73.52-23.80L73.52-23.80Q73.52-22.88 73.52-22.16L73.52-22.16L73.52-22.16Q73.52-21.44 73.56-20.92L73.56-20.92L72.64-20.92L72.64-20.92Q72.16-22.44 71.82-23.34L71.82-23.34L71.82-23.34Q71.48-24.24 71.14-24.72L71.14-24.72L71.14-24.72Q70.80-25.20 70.38-25.34L70.38-25.34L70.38-25.34Q69.96-25.48 69.32-25.48L69.32-25.48L62.04-25.48L62.04-25.48Q61.36-25.48 61.12-25.10L61.12-25.10L61.12-25.10Q60.88-24.72 60.88-23.80L60.88-23.80L60.88-16.12L67.92-16.12L67.92-16.12Q68.64-16.12 68.90-16.34L68.90-16.34L68.90-16.34Q69.16-16.56 69.32-17.32L69.32-17.32L69.96-19.76L70.96-19.76L70.96-19.76Q70.92-19 70.90-18.02L70.90-18.02L70.90-18.02Q70.88-17.04 70.88-15.76L70.88-15.76L70.88-15.76Q70.88-13.24 71-10.92L71-10.92L70.08-10.92L69.24-13.44L69.24-13.44Q69.12-13.84 68.98-14.08L68.98-14.08L68.98-14.08Q68.84-14.32 68.60-14.42L68.60-14.42L68.60-14.42Q68.36-14.52 67.98-14.54L67.98-14.54L67.98-14.54Q67.60-14.56 67-14.56L67-14.56L60.88-14.56L60.88-5.44L60.88-5.44Q60.88-4.88 60.96-4.62L60.96-4.62L60.96-4.62Q61.04-4.36 61.22-4.22L61.22-4.22L61.22-4.22Q61.40-4.08 61.68-4.04L61.68-4.04L61.68-4.04Q61.96-4 62.40-3.96L62.40-3.96L64.44-3.68Z" transform="translate(-0.2, 27.56)"></path></g> <!----> <!----> <!----> <!----> <!----> <!----> <!----></g> <g class="tp-slogan" transform="translate(4.685001373291016,32.31999969482422)"><!----> <!----> <!----> <g><path d="M5.02-3.70L2.20-3.70L2.20 0L1.03 0L1.03-8.58L5.02-8.58L5.02-8.58Q7.88-8.58 7.88-6.28L7.88-6.28L7.88-6.28Q7.88-4.88 6.66-4.22L6.66-4.22L6.66-4.22Q7.69-3.94 7.69-2.58L7.69-2.58L7.78-1.03L7.78-1.03Q7.73-0.38 8.20-0.19L8.20-0.19L8.20 0L6.75 0L6.75 0Q6.61-0.61 6.56-2.16L6.56-2.16L6.56-2.16Q6.61-3.70 5.02-3.70L5.02-3.70ZM5.11-7.64L2.20-7.64L2.20-4.69L4.92-4.69L4.92-4.69Q6.66-4.69 6.66-6.19L6.66-6.19L6.66-6.19Q6.66-7.64 5.11-7.64L5.11-7.64ZM13.69-1.97L13.69-1.97L14.72-1.97L14.72-1.97Q14.53-0.89 13.59-0.23L13.59-0.23L13.59-0.23Q13.08 0.09 11.91 0.09L11.91 0.09L11.91 0.09Q9.23 0 9.09-2.95L9.09-2.95L9.09-2.95Q9.19-6.38 12.09-6.47L12.09-6.47L12.09-6.47Q14.77-6.42 14.81-2.77L14.81-2.77L10.22-2.77L10.22-2.77Q10.22-0.70 12.05-0.70L12.05-0.70L12.05-0.70Q13.36-0.80 13.69-1.97ZM10.22-3.61L10.22-3.61L13.73-3.61L13.73-3.61Q13.59-5.48 11.95-5.48L11.95-5.48L11.95-5.48Q10.41-5.34 10.22-3.61ZM17.02-4.36L17.02-4.36L16.03-4.36L16.03-4.36Q16.08-6.47 18.61-6.47L18.61-6.47L18.61-6.47Q20.86-6.38 20.91-4.69L20.91-4.69L20.91-1.08L20.91-1.08Q20.91-0.70 21.28-0.70L21.28-0.70L21.28-0.70Q21.33-0.70 21.42-0.70L21.42-0.70L21.42-0.70Q21.56-0.75 21.66-0.75L21.66-0.75L21.66 0L21.66 0Q21.56 0 21.42 0L21.42 0L21.42 0Q21.19 0.05 21.05 0.05L21.05 0.05L21.05 0.05Q19.92 0.05 19.97-0.84L19.97-0.84L19.97-0.84Q19.03 0.09 17.67 0.09L17.67 0.09L17.67 0.09Q15.80 0 15.70-1.64L15.70-1.64L15.70-1.64Q15.75-3.33 17.63-3.61L17.63-3.61L19.36-3.80L19.36-3.80Q19.92-3.89 19.92-4.55L19.92-4.55L19.92-4.55Q19.92-5.58 18.42-5.58L18.42-5.58L18.42-5.58Q17.11-5.58 17.02-4.36ZM19.88-2.16L19.88-2.16L19.88-3.19L19.88-3.19Q19.50-2.95 18.14-2.77L18.14-2.77L18.14-2.77Q16.83-2.67 16.83-1.78L16.83-1.78L16.83-1.78Q16.83-0.70 17.91-0.70L17.91-0.70L17.91-0.70Q19.73-0.84 19.88-2.16ZM27.66-4.13L27.66-4.13L26.63-4.13L26.63-4.13Q26.48-5.48 25.17-5.48L25.17-5.48L25.17-5.48Q23.48-5.39 23.39-3.14L23.39-3.14L23.39-3.14Q23.39-0.70 25.13-0.70L25.13-0.70L25.13-0.70Q26.39-0.80 26.63-2.20L26.63-2.20L27.66-2.20L27.66-2.20Q27.28 0.05 25.13 0.09L25.13 0.09L25.13 0.09Q22.41 0 22.31-2.95L22.31-2.95L22.31-2.95Q22.41-6.38 25.31-6.47L25.31-6.47L25.31-6.47Q27.38-6.42 27.66-4.13ZM31.03-6.28L31.03-5.39L30-5.39L30-1.31L30-1.31Q30-0.80 30.61-0.80L30.61-0.80L31.03-0.80L31.03 0L31.03 0Q30.75 0 30.38 0L30.38 0L30.38 0Q30.28 0 30.23 0L30.23 0L30.23 0Q28.88 0 28.92-1.22L28.92-1.22L28.92-5.39L28.13-5.39L28.13-6.28L28.92-6.28L28.92-8.02L30-8.02L30-6.28L31.03-6.28ZM41.77-6.09L41.77-6.09L40.69-6.09L40.69-6.09Q40.59-7.73 38.53-7.83L38.53-7.83L38.53-7.83Q36.61-7.78 36.61-6.33L36.61-6.33L36.61-6.33Q36.61-5.39 37.64-5.25L37.64-5.25L40.08-4.69L40.08-4.69Q42-4.22 42-2.34L42-2.34L42-2.34Q41.95 0.05 38.63 0.14L38.63 0.14L38.63 0.14Q36.80 0.14 36.05-0.61L36.05-0.61L36.05-0.61Q35.11-1.31 35.16-2.77L35.16-2.77L36.28-2.77L36.28-2.77Q36.33-0.80 38.63-0.75L38.63-0.75L38.63-0.75Q40.88-0.80 40.92-2.20L40.92-2.20L40.92-2.20Q41.11-3.38 39.05-3.75L39.05-3.75L37.27-4.13L37.27-4.13Q35.44-4.64 35.44-6.19L35.44-6.19L35.44-6.19Q35.58-8.72 38.44-8.81L38.44-8.81L38.44-8.81Q41.67-8.81 41.77-6.09ZM45.66-6.28L45.66-5.39L44.63-5.39L44.63-1.31L44.63-1.31Q44.63-0.80 45.23-0.80L45.23-0.80L45.66-0.80L45.66 0L45.66 0Q45.38 0 45 0L45 0L45 0Q44.91 0 44.86 0L44.86 0L44.86 0Q43.50 0 43.55-1.22L43.55-1.22L43.55-5.39L42.75-5.39L42.75-6.28L43.55-6.28L43.55-8.02L44.63-8.02L44.63-6.28L45.66-6.28ZM51.75-6.28L51.75 0L50.77 0L50.77-0.89L50.72-0.94L50.72-0.94Q50.06 0.14 48.70 0.09L48.70 0.09L48.70 0.09Q46.73 0 46.69-1.78L46.69-1.78L46.69-6.28L47.77-6.28L47.77-2.11L47.77-2.11Q47.77-0.70 48.98-0.70L48.98-0.70L48.98-0.70Q50.58-0.75 50.72-2.81L50.72-2.81L50.72-6.28L51.75-6.28ZM57.47-8.58L58.50-8.58L58.50 0L57.52 0L57.52-0.84L57.52-0.84Q56.95 0.09 55.73 0.09L55.73 0.09L55.73 0.09Q53.11 0 52.97-3.33L52.97-3.33L52.97-3.33Q53.11-6.33 55.59-6.47L55.59-6.47L55.59-6.47Q56.58-6.47 57.38-5.53L57.38-5.53L57.38-5.53Q57.42-5.44 57.47-5.39L57.47-5.39L57.47-5.44L57.47-8.58ZM54.05-3.14L54.05-3.14L54.05-3.14Q54.14-0.80 55.73-0.70L55.73-0.70L55.73-0.70Q57.42-0.89 57.47-2.81L57.47-2.81L57.47-2.81Q57.47-5.48 55.78-5.48L55.78-5.48L55.78-5.48Q54-5.48 54.05-3.14ZM62.20-1.13L62.25-1.13L63.89-6.28L65.06-6.28L65.06-6.28Q64.83-5.67 64.41-4.45L64.41-4.45L64.41-4.45Q63.38-1.59 62.81-0.14L62.81-0.14L62.81-0.14Q62.02 1.83 61.69 2.06L61.69 2.06L61.69 2.06Q61.36 2.48 60.33 2.44L60.33 2.44L60.33 2.44Q60.14 2.44 59.91 2.34L59.91 2.34L59.91 1.41L59.91 1.41Q59.95 1.41 60 1.45L60 1.45L60 1.45Q60.28 1.55 60.52 1.55L60.52 1.55L60.52 1.55Q61.13 1.78 61.64 0.09L61.64 0.09L59.34-6.28L60.52-6.28L62.20-1.13Z" transform="translate(-1.03125, 8.8125)"></path></g></g></g></g></g></svg>